<svg xmlns="http://www.w3.org/2000/svg" viewBox="0 0 98.47 12.24"><defs><style>.cls-1{fill:#1d1d1b;}.cls-2{fill:#e30613;}</style></defs><g id="Camada_2" data-name="Camada 2"><g id="Camada_1-2" data-name="Camada 1"><path class="cls-1" d="M7.45,4l-.07.47H4.52l.81-.92a1.71,1.71,0,0,0-.09-.27A.66.66,0,0,0,4.86,3H3.71a.82.82,0,0,0-.56.31,1.49,1.49,0,0,0-.2.29v0A1.8,1.8,0,0,0,2.81,4l-.64,4.2a1.22,1.22,0,0,0,0,.47,1.45,1.45,0,0,0,.09.25.66.66,0,0,0,.39.32h.07a9.72,9.72,0,0,0,1.08,0,.83.83,0,0,0,.56-.3,2.08,2.08,0,0,0,.19-.29l.08-.2L4,7.74H6.87l-.06.47a6.58,6.58,0,0,1-.33,1.21,4.79,4.79,0,0,1-.82,1.45.61.61,0,0,1-.12.15l-.15.16a3,3,0,0,1-2,1H2.28A2.1,2.1,0,0,1,.46,11a3.5,3.5,0,0,1-.24-.56,3.92,3.92,0,0,1-.21-1,6.49,6.49,0,0,1,0-1.23L.71,4V3.94l.43-2.7a.16.16,0,0,1,.22-.13l1.45.59L.36,0H5.23A2.13,2.13,0,0,1,7.06,1.18a2.86,2.86,0,0,1,.24.56,3.76,3.76,0,0,1,.2,1A5.53,5.53,0,0,1,7.45,4Zm0,0h0Z"/><path class="cls-1" d="M15.17,4.42,14.51,8.8,14,12.05a.17.17,0,0,1-.16.14H12.06A.16.16,0,0,1,11.9,12l.18-1.17a.17.17,0,0,0-.16-.19H10.13a.16.16,0,0,0-.16.14l-.2,1.27a.16.16,0,0,1-.16.14H7.82A.16.16,0,0,1,7.66,12l.49-3.2.68-4.38,0-.23.46-3,.72.29.41.18L8,0h4.74a2.31,2.31,0,0,1,2,1.3A4.82,4.82,0,0,1,15.17,4.42Zm-2.26-1a.79.79,0,0,0-.68-.45,1.16,1.16,0,0,0-.82.45,2.3,2.3,0,0,0-.43.79c-.15,1.06-.35,2.18-.52,3.33a.17.17,0,0,0,.16.19h1.81a.16.16,0,0,0,.16-.14l.48-3.13A1.6,1.6,0,0,0,12.91,3.38Z"/><path class="cls-1" d="M21,9.44l-.4,2.61a.17.17,0,0,1-.17.14H15.66a.17.17,0,0,1-.17-.19l.42-2.75,1.24-8,1.23.5L15.92,0h3.53L18.06,9.06a.17.17,0,0,0,.16.19h2.66A.16.16,0,0,1,21,9.44Z"/><path class="cls-1" d="M29.14,0A.16.16,0,0,1,29.3.2l-1.22,8A5.66,5.66,0,0,1,26.82,11a3.05,3.05,0,0,1-2.21,1.17h-1A2.11,2.11,0,0,1,21.74,11a4.39,4.39,0,0,1-.4-2.83h0l1.08-7a.16.16,0,0,1,.22-.12l1.47.6L21.63,0H24.7l-1.26,8.2a1.21,1.21,0,0,0,.11.72.57.57,0,0,0,.5.32h1a.78.78,0,0,0,.57-.32A1.45,1.45,0,0,0,26,8.21L27.21.15A.16.16,0,0,1,27.37,0Z"/><path class="cls-1" d="M38.39.2,36.57,12.05a.16.16,0,0,1-.16.14H34.62a.16.16,0,0,1-.16-.19l.46-3a.15.15,0,0,0,0-.09L33,4.64a.16.16,0,0,0-.31.05l-1.13,7.36a.16.16,0,0,1-.16.14H29.62a.16.16,0,0,1-.16-.19L31.11,1.18l1.27.52L29.91,0h3.51l1.87,4.57a.16.16,0,0,0,.31,0L36.28.15A.16.16,0,0,1,36.44,0h1.79A.17.17,0,0,1,38.39.2Z"/><path class="cls-1" d="M42.75,4.86h3a.16.16,0,0,1,.16.18l-.51,3.28a5.5,5.5,0,0,1-1.27,2.73A2.9,2.9,0,0,1,42,12.23H40.89a2,2,0,0,1-1.81-1.16,4.39,4.39,0,0,1-.4-2.81L39.32,4h0l.43-2.79A.16.16,0,0,1,40,1.11l1.45.59L39,0h4.9a2.18,2.18,0,0,1,1.78,1.22,3.71,3.71,0,0,1,.45,1.52.16.16,0,0,1-.1.17l-2,.8a1.56,1.56,0,0,0-.12-.4.57.57,0,0,0-.49-.3h-1a.83.83,0,0,0-.55.29,1.53,1.53,0,0,0-.29.55l-.15.92h0l0,0-.53,3.46a1.19,1.19,0,0,0,.1.72.58.58,0,0,0,.48.31c.33,0,.7,0,1.06,0A.73.73,0,0,0,43,9a1.26,1.26,0,0,0,.35-.72l.07-.43H42.17L42.59,5A.15.15,0,0,1,42.75,4.86Z"/><path class="cls-1" d="M53.77,4.42,53.1,8.8l-.5,3.25a.16.16,0,0,1-.16.14H50.65a.16.16,0,0,1-.16-.19l.18-1.17a.16.16,0,0,0-.16-.19H48.72a.16.16,0,0,0-.16.14l-.2,1.27a.16.16,0,0,1-.16.14H46.41a.16.16,0,0,1-.16-.19l.49-3.2.68-4.38a1.85,1.85,0,0,1,0-.23l.45-3,.72.29.42.18L46.58,0h4.74a2.31,2.31,0,0,1,2,1.3A4.82,4.82,0,0,1,53.77,4.42Zm-2.27-1a.79.79,0,0,0-.68-.45,1.18,1.18,0,0,0-.82.45,2.3,2.3,0,0,0-.43.79c-.15,1.06-.35,2.18-.52,3.33a.17.17,0,0,0,.16.19H51a.18.18,0,0,0,.17-.14l.48-3.13A1.67,1.67,0,0,0,51.5,3.38Z"/><path class="cls-1" d="M62.09,3v0h0V3h-.15a.77.77,0,0,0-.31.24,1.29,1.29,0,0,0-.24.43l0,.11h0v0a1,1,0,0,0,.08.6.45.45,0,0,0,.39.25c.4,0,.79,0,1.18,0a2,2,0,0,1,1.72,1.12,4.06,4.06,0,0,1,.4,2.66v0a5.12,5.12,0,0,1-1.21,2.65,2.88,2.88,0,0,1-2.08,1.12H58.19A.16.16,0,0,1,58,12l.4-2.59a.17.17,0,0,1,.17-.14c1.2,0,2.48.1,3.67,0A.85.85,0,0,0,62.73,9a1.56,1.56,0,0,0,.27-.6v0a1,1,0,0,0-.08-.59.53.53,0,0,0-.37-.25s0,0,0,0c-.4,0-.8,0-1.18,0a2,2,0,0,1-1.71-1.1,4.1,4.1,0,0,1-.39-2.67.09.09,0,0,0,0,0l.39-2.56.58.23.72.29L58.47,0h4.26C63.88,0,65,0,66.19,0a.16.16,0,0,1,.16.18L66,2.81A.17.17,0,0,1,65.8,3Z"/><path class="cls-1" d="M74.2.2l-.4,2.59a.16.16,0,0,1-.16.14H71.87a.16.16,0,0,0-.16.14l-1.38,9a.16.16,0,0,1-.16.14H68.38a.16.16,0,0,1-.16-.19l1.36-8.91a.16.16,0,0,0-.16-.18H67.75a.16.16,0,0,1-.16-.19l.23-1.51,1.11.47L66.48,0H74A.17.17,0,0,1,74.2.2Z"/><path class="cls-2" d="M81.9,4l-.65,4.22A5.53,5.53,0,0,1,80,11a3,3,0,0,1-2.17,1.17H76.74A2.14,2.14,0,0,1,74.9,11a4.39,4.39,0,0,1-.41-2.81l.23-1.52L74.84,6v-.2l.1-.59V4.8l0-.07V4.66l0-.13,0-.12v-.2l0-.2.19-1.21a1.42,1.42,0,0,1,1.93-1.1l5.56,2.91-8-4.6H79c.24,0,.48,0,.72,0a2.25,2.25,0,0,1,1.8,1.15A4.37,4.37,0,0,1,81.9,4Zm-2.23-.74A.57.57,0,0,0,79.2,3h-1a.78.78,0,0,0-.57.32,1.48,1.48,0,0,0-.31.58l-.14.93h0l0,0L76.6,8.21a1.14,1.14,0,0,0,.12.72.56.56,0,0,0,.49.3h1a.72.72,0,0,0,.55-.3,1.38,1.38,0,0,0,.34-.72L79.78,4A1.18,1.18,0,0,0,79.67,3.25Z"/><path class="cls-1" d="M90,4.69A6.75,6.75,0,0,1,88.46,8l-.15.16.9,3.78a.16.16,0,0,1-.16.2H86.9a.17.17,0,0,1-.16-.12l-.6-2.69a1.32,1.32,0,0,1-.28,0H84.72l-.42,2.69a.16.16,0,0,1-.16.14H82.35a.17.17,0,0,1-.16-.19l.41-2.64L83.85,1.2l1.22.5L82.62,0h4.69a2.57,2.57,0,0,1,2.18,1.37A5.3,5.3,0,0,1,90,4.69ZM87.66,3.45a.92.92,0,0,0-.8-.52H85.7l-.54,3.51h1.16a1.33,1.33,0,0,0,1-.52,2.42,2.42,0,0,0,.57-1.23h0A1.89,1.89,0,0,0,87.66,3.45Z"/><path class="cls-1" d="M93.79,3.08l-.24,1.55a.17.17,0,0,0,.16.19h2.78a.16.16,0,0,1,.16.19l-.39,2.61a.17.17,0,0,1-.17.14H93.21a.16.16,0,0,0-.16.14l-.19,1.2a.17.17,0,0,0,.16.19h3.86a.16.16,0,0,1,.16.19l-.4,2.63a.15.15,0,0,1-.16.13H90.26L92,1.23l1.14.47L90.62,0H98.3a.16.16,0,0,1,.16.19l-.39,2.61a.16.16,0,0,1-.16.14H94A.15.15,0,0,0,93.79,3.08Z"/></g></g></svg>