<?xml version="1.0" encoding="utf-8"?>
<!-- Generator: Adobe Illustrator 24.2.3, SVG Export Plug-In . SVG Version: 6.00 Build 0)  -->
<svg version="1.1" id="Camada_1" xmlns="http://www.w3.org/2000/svg" xmlns:xlink="http://www.w3.org/1999/xlink" x="0px" y="0px"
	 viewBox="0 0 31.9 32" style="enable-background:new 0 0 31.9 32;" xml:space="preserve">
<style type="text/css">
	.st0{fill:url(#SVGID_1_);}
	.st1{fill:url(#SVGID_2_);}
</style>
<linearGradient id="SVGID_1_" gradientUnits="userSpaceOnUse" x1="21.1108" y1="17.7647" x2="23.5355" y2="14.8301">
	<stop  offset="0" style="stop-color:#41D1FF"/>
	<stop  offset="1" style="stop-color:#BD34FE"/>
</linearGradient>
<path class="st0" d="M23.3,15c0.1,0.3,0.2,0.8,0.2,1.3c0,0.5,0,1-0.2,1.3c-0.1,0.3-0.2,0.5-0.4,0.7c-0.2,0.2-0.4,0.2-0.6,0.2
	s-0.4-0.1-0.6-0.2c-0.2-0.1-0.3-0.4-0.4-0.7c-0.1-0.3-0.1-0.8-0.1-1.3c0-0.5,0-1,0.1-1.3c0.1-0.3,0.3-0.5,0.4-0.7
	c0.2-0.1,0.4-0.2,0.6-0.2s0.4,0.1,0.6,0.2C23.1,14.5,23.3,14.7,23.3,15z"/>
<linearGradient id="SVGID_2_" gradientUnits="userSpaceOnUse" x1="3.5344" y1="31.0143" x2="28.3456" y2="0.9853">
	<stop  offset="0" style="stop-color:#41D1FF"/>
	<stop  offset="1" style="stop-color:#BD34FE"/>
</linearGradient>
<path class="st1" d="M15.9,10.3l-15.1-7v25.6l15.1-6.9L31,28.8V3.2L15.9,10.3z M11.3,20.1H9.2v-5.9H7.8v-1.6h3.5V20.1z M18,18.9
	c-0.2,0.4-0.6,0.7-1.1,1c-0.5,0.2-1.1,0.4-1.9,0.4c-0.5,0-1-0.1-1.6-0.2c-0.5-0.1-1-0.3-1.4-0.6l0.8-1.6c0.3,0.2,0.7,0.4,1,0.5
	c0.4,0.1,0.7,0.2,1.1,0.2c0.4,0,0.6-0.1,0.9-0.2c0.2-0.1,0.3-0.3,0.3-0.6c0-0.2,0-0.3-0.1-0.4c-0.1-0.1-0.2-0.2-0.4-0.3
	c-0.2-0.1-0.5-0.1-0.9-0.1h-2l0.4-4.4h4.8v1.6h-3.1l-0.1,1.1h0.5c0.8,0,1.3,0.1,1.8,0.3c0.5,0.2,0.8,0.5,1,0.8
	c0.2,0.4,0.3,0.8,0.3,1.2C18.4,18.1,18.3,18.5,18,18.9z M25.2,18.4c-0.3,0.6-0.7,1-1.2,1.3c-0.5,0.3-1.1,0.5-1.7,0.5
	s-1.2-0.2-1.7-0.5s-0.9-0.8-1.2-1.3c-0.3-0.6-0.4-1.3-0.4-2.1c0-0.8,0.1-1.5,0.4-2.1c0.3-0.6,0.7-1,1.2-1.3s1.1-0.5,1.7-0.5
	s1.2,0.2,1.7,0.5c0.5,0.3,0.9,0.8,1.2,1.3c0.3,0.6,0.4,1.3,0.4,2.1C25.7,17.1,25.5,17.8,25.2,18.4z"/>
</svg>
